<svg xmlns="http://www.w3.org/2000/svg" viewBox="0 0 40 40" fill="none">
  <circle cx="20" cy="20" r="18" fill="white" fill-opacity="0.2"/>
  <circle cx="20" cy="20" r="14" fill="white" fill-opacity="0.3"/>
  <path d="M20 8C13.373 8 8 13.373 8 20s5.373 12 12 12 12-5.373 12-12S26.627 8 20 8zm0 2c5.523 0 10 4.477 10 10s-4.477 10-10 10S10 25.523 10 20s4.477-10 10-10z" fill="white"/>
  <path d="M20 13a1.5 1.5 0 100 3 1.5 1.5 0 000-3zm-4 4a1 1 0 100 2h8a1 1 0 100-2h-8zm1 4a1 1 0 100 2h6a1 1 0 100-2h-6zm2 3a1 1 0 100 2h2a1 1 0 100-2h-2z" fill="white"/>
</svg>
